erDiagram
Computation-Response {
value-object yes
}
Response {
bounded-context SimulationEngine
}
status{
value-object yes}
	Response |o--o| Computation-Response: "contains"
	Computation-Response ||--|| status: "contains"
	Computation-Response ||--|| Computation: "returned by"
	Computation-Response |o--|| UI: "Used by"
