stateDiagram-v2
    direction LR
    AA(0) --> BB(13) : 1
    BB(13) --> AA(0) : 1
    AA(0) --> DD(20) : 1
    DD(20) --> AA(0) : 1
    AA(0) --> JJ(21) : 2
    JJ(21) --> AA(0) : 2
    BB(13) --> CC(2) : 1
    CC(2) --> BB(13) : 1
    CC(2) --> DD(20) : 1
    DD(20) --> CC(2) : 1
    EE(3) --> DD(20) : 1
    DD(20) --> EE(3) : 1
    EE(3) --> HH(22) : 3
    HH(22) --> EE(3) : 3
    